<?xml version="1.0" standalone="no"?>
<!DOCTYPE svg PUBLIC "-//W3C//DTD SVG 20010904//EN"
 "http://www.w3.org/TR/2001/REC-SVG-20010904/DTD/svg10.dtd">
<svg version="1.0" xmlns="http://www.w3.org/2000/svg"
 width="1737.000000pt" height="726.013839pt" viewBox="0 0 1737.000000 726.013839"
 preserveAspectRatio="xMidYMid meet">
<metadata>
Created by potrace 1.12, written by Peter Selinger 2001-2015
</metadata>
<g transform="translate(-105.000000,760.000000) scale(0.100000,-0.100000)"
fill="#000000" stroke="none">
<path d="M15938 7591 c27 -17 6 -44 -60 -80 -37 -20 -84 -46 -105 -58 -47 -26
-224 -201 -290 -286 -46 -58 -71 -95 -152 -222 -18 -27 -97 -180 -176 -340
-138 -276 -149 -305 -249 -605 -58 -173 -112 -349 -120 -390 -20 -96 -60 -259
-80 -330 -19 -64 -31 -126 -45 -230 -5 -41 -20 -104 -33 -140 -23 -65 -23 -69
-25 -620 -1 -305 -4 -576 -7 -601 -4 -25 -20 -68 -37 -95 -35 -57 -231 -258
-271 -280 -43 -23 -102 -18 -137 11 -61 52 -62 65 -58 535 3 410 4 427 26 483
12 32 28 107 36 165 17 130 100 452 150 582 32 81 38 111 42 201 5 99 4 109
-22 167 -31 70 -84 119 -196 184 -138 79 -272 60 -353 -51 -42 -57 -79 -81
-126 -81 -39 0 -62 12 -125 65 -91 77 -156 104 -275 115 -113 9 -230 0 -295
-23 -57 -21 -213 -104 -260 -138 -58 -43 -301 -285 -346 -346 -22 -29 -71
-114 -110 -190 -86 -167 -144 -247 -207 -287 -42 -27 -58 -31 -152 -36 -82 -5
-119 -12 -167 -33 -62 -27 -108 -34 -129 -19 -40 26 -41 99 -3 173 19 38 20
55 17 407 l-3 367 -33 70 c-68 144 -158 241 -268 292 -53 24 -65 25 -205 24
-118 -1 -161 -5 -216 -22 -165 -51 -337 -219 -402 -393 l-26 -71 2 -282 c2
-256 4 -288 23 -345 34 -101 122 -257 199 -354 137 -171 135 -250 -11 -543
-152 -303 -347 -562 -446 -592 -84 -25 -168 22 -191 106 -5 22 -26 99 -46 170
l-37 130 0 440 0 440 30 96 c21 66 32 128 37 200 7 97 22 172 74 359 46 164
17 246 -109 312 -41 21 -61 23 -205 26 -145 3 -166 2 -218 -18 -62 -23 -117
-72 -147 -130 -19 -38 -66 -209 -99 -360 -35 -159 -106 -276 -189 -311 -24
-11 -67 -39 -96 -63 -28 -25 -63 -47 -78 -51 -26 -7 -66 8 -80 29 -4 6 -8 61
-8 121 0 148 -31 260 -124 460 -95 202 -188 315 -321 386 -241 130 -244 131
-474 129 -101 0 -204 -5 -230 -11 -51 -11 -206 -87 -291 -142 -67 -43 -165
-144 -208 -213 -18 -28 -32 -54 -32 -57 0 -4 -13 -36 -30 -72 -16 -36 -30 -68
-30 -71 0 -15 -58 -78 -101 -110 -70 -51 -249 -230 -292 -292 -90 -127 -176
-340 -227 -559 -16 -67 -38 -152 -49 -189 -18 -57 -21 -93 -21 -263 0 -170 3
-206 21 -266 11 -39 31 -116 43 -173 27 -119 67 -204 165 -347 94 -137 106
-151 168 -197 65 -47 249 -140 314 -157 32 -9 123 -12 310 -9 l265 3 107 53
c58 28 108 52 111 52 51 0 510 445 596 577 27 42 50 81 50 85 0 5 27 64 61
131 34 67 74 162 91 212 45 136 102 210 203 263 50 26 97 70 159 150 38 48 55
62 75 62 67 -1 80 -37 74 -223 -3 -113 -1 -165 10 -202 46 -162 57 -209 67
-289 6 -49 23 -121 37 -160 14 -39 39 -111 55 -161 66 -205 102 -272 196 -369
63 -65 169 -139 234 -162 122 -44 323 -37 436 16 97 45 151 91 382 321 221
220 298 311 338 399 14 30 49 89 77 130 58 84 143 236 195 350 19 41 52 101
73 134 57 85 84 95 288 100 191 4 250 -5 279 -41 19 -24 20 -40 20 -291 0
-252 1 -271 26 -366 14 -56 32 -130 41 -166 19 -75 93 -240 146 -321 76 -119
213 -227 336 -268 56 -18 88 -21 246 -21 201 0 218 3 315 62 164 100 218 146
286 248 55 83 76 100 121 100 41 0 90 -42 123 -107 68 -135 161 -236 258 -281
54 -25 66 -26 204 -26 178 1 199 7 355 111 110 73 152 113 217 203 17 25 48
54 68 65 35 18 38 18 71 3 22 -10 50 -40 76 -80 42 -63 146 -178 162 -178 4 0
21 -11 37 -25 38 -32 217 -122 285 -142 38 -12 90 -16 197 -15 236 2 361 42
562 180 153 104 157 106 215 106 47 0 60 -5 135 -56 111 -75 134 -86 216 -98
88 -14 158 -2 242 40 75 38 172 111 201 151 34 48 117 109 148 109 36 0 61
-28 61 -70 0 -18 -18 -75 -40 -126 -22 -52 -40 -98 -40 -104 0 -21 -172 -343
-210 -394 -27 -36 -76 -77 -157 -132 -154 -105 -179 -114 -304 -114 -108 0
-187 20 -258 64 -54 35 -119 112 -151 181 -50 108 -97 132 -149 76 -21 -22
-34 -57 -56 -144 l-28 -114 17 -69 c37 -148 89 -258 160 -332 116 -124 252
-213 352 -231 87 -16 357 -14 432 4 70 17 248 106 326 165 79 59 189 178 250
271 31 46 64 95 73 109 74 103 229 427 268 560 5 14 23 57 42 95 35 71 176
481 188 545 18 93 47 201 69 256 14 34 36 111 50 170 14 60 34 138 46 174 13
40 24 113 30 190 5 69 18 157 30 197 11 40 27 116 35 171 8 54 21 117 30 141
8 24 22 94 30 155 8 61 24 140 36 176 16 48 23 104 29 215 6 116 13 162 29
203 13 32 21 75 21 109 0 88 -38 135 -160 199 -52 27 -62 29 -175 29 -113 0
-123 -2 -175 -29 -140 -74 -169 -118 -180 -284 -5 -64 -17 -148 -28 -187 -11
-38 -25 -110 -31 -158 -7 -48 -23 -126 -36 -172 -14 -46 -29 -126 -35 -177 -6
-50 -22 -124 -36 -162 -14 -39 -47 -139 -74 -222 -27 -83 -63 -193 -80 -245
-17 -52 -38 -116 -47 -144 -35 -111 -194 -350 -288 -433 -111 -97 -209 -47
-236 122 -11 66 -3 126 31 246 11 36 24 107 30 158 7 60 25 136 51 210 22 65
51 162 64 217 13 55 34 129 46 165 21 62 23 83 27 405 2 242 0 352 -8 380 -16
54 -70 117 -140 165 -98 67 -149 82 -290 87 -108 5 -128 8 -147 26 -32 28 -31
101 1 165 31 64 52 129 75 242 11 52 31 133 46 179 25 84 25 85 25 481 0 444
-1 451 -71 572 -50 85 -127 169 -202 220 -49 34 -58 44 -54 64 l4 24 -201 0
c-115 0 -195 -4 -188 -9z m282 -651 c18 -18 20 -33 20 -187 0 -158 -3 -180
-44 -383 -24 -118 -50 -231 -59 -250 -14 -34 -33 -79 -78 -192 -11 -29 -38
-90 -60 -136 -21 -45 -39 -92 -39 -105 0 -12 -15 -49 -34 -82 -18 -33 -40 -75
-49 -92 -9 -18 -25 -48 -34 -65 -78 -152 -169 -307 -192 -328 -10 -8 -37 -43
-61 -78 -54 -80 -145 -172 -170 -172 -43 0 -54 93 -20 160 14 27 20 59 20 101
0 74 93 542 119 602 42 95 60 145 71 202 7 33 24 80 40 105 15 25 33 70 40
100 7 30 20 69 28 85 8 17 23 69 32 117 17 85 25 101 97 196 18 24 33 50 33
58 0 38 117 231 173 288 81 80 127 96 167 56z m-5200 -1476 c56 -33 74 -104
59 -229 -24 -208 -29 -228 -51 -252 -38 -41 -56 -47 -86 -27 -32 21 -42 31
-65 64 -14 21 -17 50 -17 190 0 187 4 201 80 253 31 21 45 21 80 1z m-2971
-116 c26 -12 72 -46 103 -76 124 -118 186 -292 189 -532 1 -131 -5 -163 -39
-193 -18 -17 -31 -18 -104 -12 -70 5 -92 3 -142 -14 -73 -26 -106 -26 -154 -2
-45 23 -136 117 -181 188 -78 124 -111 311 -77 442 47 184 240 279 405 199z
m8373 -7 l33 -29 2 -194 c1 -143 -3 -207 -14 -248 -8 -30 -28 -107 -44 -170
-16 -63 -38 -147 -49 -186 -12 -39 -23 -114 -26 -167 -5 -97 -29 -196 -88
-363 -13 -40 -32 -125 -41 -190 -19 -139 -42 -193 -126 -297 -109 -133 -262
-227 -372 -227 -116 0 -199 71 -297 253 -79 149 -91 194 -95 387 -5 189 6 257
55 324 17 22 155 167 308 321 277 278 279 281 408 473 71 106 143 216 161 245
64 103 122 124 185 68z m-3071 -184 c34 -17 50 -35 72 -77 25 -50 27 -62 27
-175 0 -70 -6 -144 -14 -175 -27 -107 -27 -127 -6 -216 25 -105 27 -283 5
-364 -8 -30 -30 -114 -49 -186 -56 -215 -137 -360 -282 -502 -101 -99 -154
-127 -221 -117 -77 11 -180 124 -234 255 -21 51 -23 73 -27 294 -3 159 0 260
8 300 6 34 43 155 82 271 107 319 185 457 343 607 116 110 201 134 296 85z
m-6017 -792 c17 -14 73 -67 125 -120 112 -114 168 -149 327 -208 135 -51 208
-67 301 -67 55 0 68 -4 88 -25 44 -43 34 -81 -67 -252 -99 -167 -194 -260
-336 -326 -60 -28 -76 -31 -196 -35 -83 -3 -147 0 -175 8 -68 18 -128 82 -189
202 -82 161 -84 172 -90 364 -4 154 -2 179 18 255 12 46 27 102 32 124 12 50
44 102 66 108 28 8 63 -2 96 -28z"/>
<path d="M3585 7413 c-16 -3 -61 -13 -100 -24 -38 -11 -115 -26 -170 -34 -55
-7 -147 -30 -205 -50 -58 -20 -167 -52 -243 -71 -75 -19 -168 -49 -205 -66
-101 -46 -184 -78 -202 -78 -23 0 -515 -249 -585 -296 -33 -22 -82 -56 -110
-74 -75 -51 -142 -105 -169 -137 -13 -15 -52 -48 -86 -73 -34 -25 -97 -74
-142 -110 -78 -63 -82 -69 -160 -215 -43 -82 -86 -167 -95 -187 -16 -38 -46
-51 -56 -25 -3 6 -6 -169 -6 -389 l-1 -401 25 5 c14 2 25 0 25 -5 0 -5 18 -34
40 -64 21 -30 52 -72 67 -93 90 -127 173 -196 328 -275 147 -74 200 -84 435
-79 122 3 206 9 225 17 84 34 135 94 120 141 -9 28 -44 40 -120 40 -219 0
-395 126 -472 338 -43 118 -32 202 62 462 43 118 99 183 499 579 157 156 190
182 326 254 41 22 109 64 152 93 97 66 333 186 452 229 289 104 584 197 661
207 150 20 263 -26 297 -121 9 -26 13 -116 13 -326 -1 -273 -2 -295 -24 -370
-13 -44 -34 -123 -46 -175 -13 -52 -33 -122 -45 -155 -12 -33 -27 -80 -34
-105 -7 -25 -25 -75 -40 -111 -14 -36 -26 -71 -26 -77 0 -40 -140 -424 -195
-532 -34 -69 -79 -156 -98 -195 -20 -38 -83 -165 -141 -282 -57 -116 -120
-234 -138 -261 -18 -27 -40 -62 -49 -78 -9 -16 -37 -58 -61 -94 -55 -80 -154
-228 -188 -280 -14 -21 -47 -71 -74 -111 -33 -50 -145 -171 -344 -372 -235
-236 -316 -311 -395 -365 -126 -86 -212 -139 -262 -163 -70 -32 -248 -90 -308
-100 -110 -18 -252 28 -344 112 -82 75 -174 72 -189 -7 -11 -61 3 -334 20
-388 35 -106 125 -229 257 -347 106 -95 135 -115 211 -145 125 -49 184 -59
343 -59 172 0 211 8 335 70 47 23 100 46 117 50 18 3 59 20 90 36 56 28 75 40
194 120 30 20 143 124 252 232 182 181 246 253 320 363 15 22 47 64 71 92 24
28 92 124 151 214 59 90 116 176 127 191 11 16 34 49 51 74 94 133 156 238
224 374 29 59 81 149 115 200 35 52 107 182 161 289 54 107 115 220 136 250
22 30 74 116 116 190 42 74 96 164 121 200 25 36 54 83 64 105 9 22 53 96 96
165 44 69 94 153 112 188 41 79 164 261 240 356 31 39 79 104 106 144 27 40
62 87 78 105 16 17 48 58 71 90 107 149 135 183 251 294 133 127 207 178 273
189 36 5 45 3 67 -19 41 -41 35 -88 -39 -313 -62 -186 -106 -307 -126 -343
-16 -30 -67 -156 -83 -206 -9 -27 -59 -178 -112 -335 -52 -157 -99 -301 -103
-320 -5 -19 -20 -64 -34 -100 -14 -36 -44 -146 -67 -245 -23 -99 -57 -236 -75
-305 -19 -69 -36 -156 -40 -195 -4 -38 -20 -113 -36 -166 -20 -68 -29 -118
-29 -170 -1 -79 -5 -105 -40 -238 -20 -80 -21 -100 -17 -440 4 -401 -4 -350
100 -643 52 -149 83 -194 205 -308 153 -144 289 -190 522 -177 74 4 120 13
205 42 185 62 265 120 265 191 0 54 -22 84 -107 152 -156 124 -235 241 -274
408 -11 49 -35 139 -52 199 l-32 110 0 280 c0 268 1 283 24 350 18 53 25 104
31 210 5 100 15 167 33 235 14 52 29 127 32 165 4 39 17 106 30 150 13 44 30
112 40 150 9 39 38 158 65 265 26 107 54 222 60 255 11 56 24 96 73 235 10 30
25 75 32 100 8 25 24 72 35 105 12 33 36 121 55 195 32 133 89 303 119 357 36
65 81 192 112 313 21 83 24 118 24 272 0 144 -3 187 -19 236 -33 108 -152 226
-260 259 -54 16 -263 17 -346 2 -62 -11 -146 -50 -205 -93 -19 -14 -200 -191
-403 -393 -272 -272 -382 -389 -425 -451 -31 -47 -80 -111 -109 -143 -30 -35
-79 -113 -118 -189 -101 -196 -135 -222 -201 -156 -43 43 -43 60 1 216 l35
124 0 390 c0 490 -4 508 -127 661 -97 119 -226 203 -344 224 -62 10 -575 14
-644 4z"/>
<path d="M11925 2485 c-107 -24 -427 -135 -534 -186 -143 -69 -175 -93 -344
-258 -157 -154 -188 -198 -232 -326 -44 -129 -47 -154 -48 -375 -1 -283 -9
-266 233 -509 98 -99 206 -198 239 -221 36 -24 113 -59 188 -86 71 -26 178
-66 238 -90 97 -38 110 -46 113 -68 l3 -26 682 2 682 3 3 22 c2 15 27 36 83
68 86 51 128 66 264 95 101 21 240 69 360 125 44 20 118 49 165 65 47 15 133
52 191 82 58 30 125 62 149 71 119 42 188 69 272 109 l93 43 172 3 c182 4 203
1 368 -58 33 -12 80 -28 105 -35 25 -7 131 -43 235 -78 105 -36 217 -70 250
-77 42 -8 206 -10 545 -8 543 3 482 -4 660 80 171 82 299 195 336 298 24 69
30 218 10 258 -35 67 -71 67 -201 2 -102 -52 -153 -73 -215 -92 -19 -5 -165
-14 -325 -19 -159 -4 -357 -11 -440 -14 -143 -6 -154 -5 -235 20 -47 14 -119
30 -160 36 -177 24 -523 118 -675 183 -135 59 -282 116 -297 116 -18 0 -211
106 -293 160 -40 28 -136 82 -212 121 -75 39 -162 88 -193 109 -131 91 -353
199 -480 234 -30 8 -91 28 -135 44 -44 16 -152 53 -240 83 l-160 53 -270 7
c-217 6 -288 11 -360 28 -77 17 -123 20 -310 20 -145 0 -241 -5 -280 -14z
m1105 -534 c196 -49 227 -59 365 -126 72 -34 162 -72 200 -85 135 -43 427
-188 468 -231 62 -66 17 -147 -98 -173 -16 -4 -66 -20 -110 -36 -98 -34 -159
-52 -298 -85 -59 -14 -167 -46 -240 -71 -109 -38 -148 -46 -227 -50 -56 -3
-145 -18 -217 -35 l-121 -30 -289 3 c-317 4 -306 2 -513 85 -145 57 -221 137
-265 276 -31 97 -26 138 30 245 93 175 189 255 375 312 105 32 145 35 500 34
l315 -1 125 -32z"/>
</g>
</svg>
