<?xml version="1.0" standalone="no"?>
<!DOCTYPE svg PUBLIC "-//W3C//DTD SVG 20010904//EN"
 "http://www.w3.org/TR/2001/REC-SVG-20010904/DTD/svg10.dtd">
<svg version="1.0" xmlns="http://www.w3.org/2000/svg"
 width="898.000000pt" height="394.000000pt" viewBox="0 0 898.000000 394.000000"
 preserveAspectRatio="xMidYMid meet">
<metadata>
Created by potrace 1.12, written by Peter Selinger 2001-2015
</metadata>
<g transform="translate(-551.000000,597.000000) scale(0.100000,-0.100000)"
fill="#000000" stroke="none">
<path d="M7040 5955 c0 -19 -25 -31 -83 -39 -60 -9 -296 -124 -410 -200 -143
-95 -255 -224 -348 -403 -28 -54 -55 -103 -59 -108 -5 -6 -23 -46 -40 -89
l-31 -78 3 -216 3 -217 33 -61 c46 -85 306 -340 427 -419 199 -129 244 -164
328 -253 131 -139 127 -130 127 -307 -1 -110 -5 -161 -16 -190 -9 -22 -27 -71
-40 -109 -33 -94 -83 -173 -154 -244 -109 -110 -144 -133 -321 -216 -52 -24
-66 -26 -196 -26 -150 0 -177 6 -255 57 -63 42 -68 61 -68 238 0 111 4 165 14
189 17 40 143 180 213 236 48 38 229 130 257 130 29 0 66 41 66 74 0 25 -11
42 -52 82 -90 86 -82 84 -267 84 -163 0 -164 0 -215 -29 -65 -38 -141 -102
-236 -201 -75 -77 -109 -138 -165 -292 -10 -27 -24 -48 -31 -48 -11 0 -14 -34
-14 -175 0 -145 2 -175 14 -175 13 0 56 -93 56 -123 1 -47 197 -256 280 -298
25 -12 57 -31 71 -40 14 -10 69 -32 121 -49 88 -28 105 -30 244 -30 82 0 165
5 184 11 19 5 86 23 148 39 123 32 269 100 385 179 38 25 78 51 89 58 58 32
176 168 272 313 57 85 107 166 110 180 4 14 16 48 26 75 57 156 70 218 70 335
0 95 -4 130 -26 200 -41 136 -85 218 -172 316 -90 102 -119 126 -234 193 -128
75 -189 113 -240 151 -26 19 -81 60 -123 90 -145 105 -205 212 -205 364 0 182
90 362 281 561 132 138 328 236 446 222 54 -6 130 -44 154 -77 44 -59 48 -215
8 -334 -25 -73 -117 -225 -173 -284 -44 -46 -153 -115 -200 -126 -43 -10 -86
-58 -86 -95 0 -67 115 -148 245 -172 49 -9 67 -7 148 16 149 43 254 124 367
285 25 35 64 79 88 97 l44 33 174 0 174 0 12 -25 c9 -19 7 -37 -10 -87 -11
-35 -28 -101 -37 -148 -10 -47 -25 -107 -35 -135 -10 -27 -21 -75 -25 -105 -3
-30 -17 -95 -30 -145 -13 -49 -28 -118 -35 -152 -6 -35 -20 -82 -30 -105 -11
-24 -20 -59 -20 -78 0 -19 -7 -60 -15 -90 -8 -30 -15 -82 -15 -115 0 -33 -9
-93 -20 -134 -15 -58 -20 -106 -20 -210 1 -140 4 -163 38 -291 23 -86 90 -217
134 -260 45 -46 109 -87 153 -99 22 -6 77 -11 123 -11 71 0 95 5 160 31 101
42 123 59 279 216 167 167 178 170 243 57 14 -24 63 -82 109 -130 65 -65 104
-95 165 -127 l81 -42 200 -3 c234 -4 281 3 378 61 84 50 333 297 399 395 85
126 167 288 188 370 13 52 43 73 121 84 38 5 92 24 150 53 56 29 101 45 117
43 23 -3 28 -9 35 -52 8 -50 2 -92 -27 -176 -31 -92 -46 -224 -46 -403 0 -99
5 -188 11 -204 14 -37 105 -130 151 -154 53 -27 205 -27 265 1 57 25 70 55 55
121 -15 62 -16 447 -2 484 6 15 15 59 21 98 6 40 19 97 29 127 10 30 22 76 25
102 7 53 39 107 75 125 14 7 51 13 83 13 80 0 93 -16 101 -117 8 -89 10 -101
64 -243 23 -62 46 -147 56 -208 9 -57 25 -125 35 -150 11 -26 38 -96 61 -157
135 -361 141 -371 354 -654 72 -96 155 -169 246 -216 30 -16 75 -43 100 -61
31 -22 71 -37 129 -50 63 -13 85 -22 89 -36 4 -16 17 -18 153 -18 124 0 149 2
149 15 0 19 24 31 90 43 89 17 106 27 212 129 128 125 157 167 168 243 19 134
-24 167 -155 116 -31 -11 -82 -15 -218 -16 -174 0 -180 1 -250 29 -72 29 -206
113 -282 178 -90 76 -236 282 -329 462 -15 30 -32 62 -37 70 -19 33 -69 153
-69 165 0 7 -16 43 -35 79 -19 36 -35 74 -35 84 0 10 -10 38 -21 63 -22 47
-68 167 -100 259 -11 30 -19 75 -19 102 0 41 4 51 35 78 20 17 39 31 44 31 14
0 125 90 207 169 44 43 96 103 115 135 19 31 44 74 56 94 12 20 36 75 53 122
27 76 31 102 34 211 3 138 -7 192 -53 291 -60 129 -241 270 -377 293 -22 4
-63 14 -93 22 -42 12 -112 15 -311 15 -154 0 -264 -4 -276 -10 -10 -5 -57 -17
-103 -27 -46 -9 -102 -25 -125 -34 -22 -10 -56 -21 -75 -24 -55 -11 -223 -100
-315 -167 -134 -97 -171 -167 -164 -306 4 -70 9 -90 34 -131 54 -87 123 -85
153 3 13 41 36 70 111 145 86 85 236 199 264 199 6 0 31 12 56 26 25 15 74 33
110 40 36 8 90 19 120 25 31 6 112 9 185 7 118 -3 136 -6 187 -31 60 -29 168
-139 188 -191 16 -43 12 -254 -6 -301 -9 -22 -24 -66 -35 -98 -25 -76 -52
-115 -155 -218 -81 -82 -92 -89 -189 -128 -124 -50 -181 -54 -191 -16 -3 14 3
62 14 108 11 45 23 100 27 122 4 22 29 107 56 190 53 161 58 198 33 251 -25
53 -116 130 -161 137 -96 14 -227 -23 -252 -71 -13 -26 -39 -151 -46 -220 -3
-34 -19 -94 -36 -132 -16 -39 -34 -102 -38 -141 -14 -109 -49 -167 -177 -294
-99 -98 -119 -113 -184 -138 -67 -26 -74 -27 -96 -12 l-24 15 0 232 c0 217 -2
238 -26 332 -50 194 -121 295 -260 368 -134 70 -244 71 -344 2 -61 -42 -101
-44 -172 -8 -47 24 -60 26 -137 22 -70 -3 -100 -11 -164 -39 -71 -31 -91 -47
-238 -194 l-160 -160 -74 -151 c-41 -83 -81 -178 -89 -210 -8 -33 -27 -102
-41 -154 -19 -68 -29 -133 -34 -230 -7 -134 -8 -136 -54 -235 -79 -165 -133
-249 -204 -316 -66 -61 -114 -89 -154 -89 -40 0 -85 30 -110 73 -23 41 -24 49
-24 247 0 224 14 364 45 435 11 26 20 62 20 82 0 19 11 67 24 106 13 40 26
108 30 153 3 45 14 105 25 135 26 73 90 308 107 394 15 75 59 224 78 265 7 15
22 26 36 28 14 2 57 11 95 22 74 20 146 34 260 50 39 6 101 18 139 26 54 13
128 16 351 16 l283 -1 51 -25 c86 -44 132 -31 173 47 17 33 22 59 22 127 0
140 -46 204 -184 259 -72 28 -89 31 -194 31 -63 0 -127 -5 -143 -11 -15 -6
-55 -14 -88 -19 -79 -10 -183 -35 -275 -67 -41 -13 -102 -30 -135 -37 -33 -7
-95 -25 -137 -39 -131 -46 -148 -38 -148 70 0 89 -15 130 -64 166 -46 35 -169
87 -208 87 -41 0 -91 -23 -115 -54 -12 -15 -26 -55 -32 -94 -7 -37 -23 -101
-37 -143 -26 -81 -45 -99 -103 -99 -51 0 -121 -93 -106 -140 10 -32 -28 -60
-82 -60 -69 0 -118 17 -159 53 -51 44 -78 91 -108 188 -24 74 -94 226 -121
261 -18 24 -137 108 -151 108 -26 0 -94 40 -94 55 0 13 -34 15 -235 15 -200 0
-235 -2 -235 -15z m2821 -1231 c11 -13 9 -39 -10 -154 -50 -292 -1 -469 175
-646 34 -34 93 -80 131 -102 75 -44 83 -54 83 -106 0 -49 -17 -91 -79 -195
-59 -98 -145 -189 -224 -235 -52 -31 -169 -45 -232 -27 -67 18 -130 84 -165
173 l-30 76 0 285 c0 254 2 292 19 348 11 35 27 94 35 130 20 89 178 411 218
444 34 29 60 32 79 9z m430 -36 c25 -14 46 -37 59 -63 18 -38 20 -62 20 -273
0 -219 -1 -233 -20 -252 -38 -38 -91 -19 -150 55 -79 99 -103 183 -99 342 4
132 14 158 72 193 41 26 70 25 118 -2z"/>
<path d="M13625 5073 c-199 -41 -254 -64 -375 -154 -90 -66 -169 -151 -225
-239 -26 -41 -69 -107 -94 -145 -30 -45 -58 -107 -80 -175 -18 -58 -44 -130
-56 -160 -13 -30 -31 -93 -39 -140 -9 -47 -23 -114 -31 -150 -16 -73 -20 -332
-6 -390 80 -313 98 -350 235 -484 112 -109 130 -120 252 -160 72 -23 98 -26
222 -26 134 0 145 2 242 34 185 63 287 133 490 336 113 113 147 153 203 247
37 61 74 128 82 147 9 20 22 36 30 36 13 0 15 23 15 139 0 135 -1 139 -22 145
-55 14 -76 7 -116 -40 -22 -26 -59 -85 -83 -133 -60 -118 -98 -167 -236 -303
-98 -97 -132 -124 -199 -158 -45 -22 -87 -40 -93 -40 -6 0 -40 -12 -74 -26
l-62 -26 -70 22 c-114 36 -164 70 -211 142 -44 68 -84 164 -84 203 0 28 42 62
110 90 43 17 192 90 276 135 42 23 321 289 366 350 48 65 126 225 158 325 27
83 31 111 27 165 -5 65 -36 173 -65 220 -21 36 -132 129 -183 155 -86 44 -237
73 -304 58z m126 -302 c23 -18 24 -25 24 -149 0 -129 0 -129 -36 -199 -20 -38
-40 -87 -43 -109 -4 -21 -13 -49 -19 -61 -24 -44 -260 -284 -301 -306 -70 -37
-75 -38 -98 -15 -17 17 -20 29 -15 72 3 28 14 71 25 96 11 25 23 68 27 95 11
81 54 227 79 265 13 20 42 74 64 121 23 48 61 107 84 133 65 71 160 97 209 57z"/>
</g>
</svg>
