<?xml version="1.0" standalone="no"?>
<!DOCTYPE svg PUBLIC "-//W3C//DTD SVG 20010904//EN"
 "http://www.w3.org/TR/2001/REC-SVG-20010904/DTD/svg10.dtd">
<svg version="1.0" xmlns="http://www.w3.org/2000/svg"
 width="521.434078pt" height="480.827575pt" viewBox="0 0 521.434078 480.827575"
 preserveAspectRatio="xMidYMid meet">
<metadata>
Created by potrace 1.12, written by Peter Selinger 2001-2015
</metadata>
<g transform="translate(-234.360882,734.000000) scale(0.100000,-0.100000)"
fill="#000000" stroke="none">
<path d="M4135 7330 c-16 -4 -57 -13 -90 -20 -132 -28 -173 -42 -273 -91 -57
-29 -122 -67 -144 -86 -23 -18 -60 -43 -84 -53 -64 -29 -162 -124 -169 -163
-3 -18 -10 -97 -15 -177 -6 -80 -15 -179 -21 -220 -5 -41 -14 -120 -19 -175
-16 -194 -41 -362 -56 -387 -4 -6 -13 -73 -20 -147 -14 -142 -27 -252 -44
-361 -6 -36 -14 -103 -18 -150 -4 -47 -12 -94 -18 -105 -6 -11 -14 -63 -18
-115 -9 -118 -20 -167 -90 -382 -51 -155 -177 -380 -267 -473 -16 -17 -29 -35
-29 -41 0 -5 -48 -54 -106 -109 -86 -81 -117 -104 -167 -123 -61 -23 -132 -79
-142 -113 -6 -18 11 -61 67 -179 87 -179 361 -519 539 -668 41 -33 90 -75 110
-92 20 -16 39 -30 42 -30 3 0 35 -20 70 -45 36 -25 68 -45 71 -45 4 0 62 -27
129 -59 159 -77 214 -101 231 -101 8 0 17 -4 20 -9 4 -5 39 -14 79 -21 39 -6
97 -18 127 -25 119 -29 197 -37 300 -32 218 13 257 23 376 100 70 46 214 187
214 211 0 7 14 41 32 77 54 109 56 119 63 363 8 273 17 306 83 306 19 0 102
-78 102 -96 0 -7 12 -27 28 -45 41 -49 139 -189 163 -234 12 -22 33 -53 46
-69 13 -16 33 -47 45 -70 11 -22 33 -59 50 -81 46 -63 210 -314 239 -364 59
-104 171 -85 549 96 63 30 124 60 135 66 11 6 54 29 95 50 106 57 191 118 218
157 17 25 22 48 23 99 0 62 8 142 29 321 18 145 28 215 33 235 3 11 11 76 17
145 7 69 18 157 26 195 8 39 19 111 24 160 6 50 15 117 20 150 25 160 41 278
50 355 5 47 17 128 26 180 18 108 31 194 42 295 5 39 14 80 20 92 7 12 12 30
12 40 0 29 99 326 114 343 15 15 76 133 76 144 0 3 28 43 62 87 83 108 271
275 353 314 73 34 79 56 36 148 -33 72 -178 304 -227 362 -80 96 -264 283
-313 320 -30 22 -93 69 -140 104 -47 35 -108 75 -136 87 -27 13 -68 35 -90 49
-53 33 -42 29 -185 63 -185 44 -237 52 -334 52 -67 0 -96 -5 -126 -20 -22 -11
-64 -26 -94 -34 -69 -18 -106 -37 -186 -97 -102 -75 -189 -177 -220 -257 -10
-26 -34 -86 -54 -133 l-35 -85 -7 -213 c-8 -242 -16 -274 -70 -279 -27 -3 -38
4 -78 50 -108 124 -136 159 -136 172 0 7 -14 30 -30 51 -17 21 -40 59 -51 84
-11 25 -31 58 -45 72 -13 14 -39 49 -57 77 -62 99 -112 174 -154 232 -24 32
-43 62 -43 67 0 6 -14 28 -31 49 -18 22 -45 60 -61 86 -38 61 -90 106 -171
146 -61 31 -68 32 -178 31 -63 0 -127 -4 -144 -9z"/>
</g>
</svg>
